<?xml version="1.0" encoding="iso-8859-1"?>
<!-- Generator: Adobe Illustrator 18.0.0, SVG Export Plug-In . SVG Version: 6.00 Build 0)  -->
<!DOCTYPE svg PUBLIC "-//W3C//DTD SVG 1.1//EN" "http://www.w3.org/Graphics/SVG/1.1/DTD/svg11.dtd">
<svg version="1.1" id="Capa_1" xmlns="http://www.w3.org/2000/svg" xmlns:xlink="http://www.w3.org/1999/xlink" x="0px" y="0px"
	 viewBox="0 0 417.476 417.476" style="enable-background:new 0 0 417.476 417.476;" xml:space="preserve">
<g id="XMLID_14_">
	<g>
		<path style="fill:#6DCC93;" d="M383.361,179.597c4.25,0,7.7,3.45,7.7,7.7s-3.45,7.7-7.7,7.7H34.121c-4.24,0-7.7-3.45-7.7-7.7
			s3.46-7.7,7.7-7.7H383.361z"/>
		<polygon style="fill:#EA6081;" points="140.141,234.527 33.551,234.527 33.551,209.997 34.121,209.997 86.401,209.997 		"/>
		<polygon style="fill:#EA6081;" points="383.931,209.997 383.931,234.527 307.531,234.527 318.731,209.997 383.361,209.997 		"/>
		<path style="fill:#4D4D4D;" d="M417.221,242.027v68.85c0,4.14-3.35,7.5-7.5,7.5H7.751c-4.14,0-7.5-3.36-7.5-7.5v-68.85
			c0-4.14,3.36-7.5,7.5-7.5h10.8v-30.73c-4.38-4.14-7.13-10-7.13-16.5c0-2.7,0.48-5.29,1.35-7.7h-5.02c-4.14,0-7.5-3.36-7.5-7.5
			v-65.5c0-4.14,3.36-7.5,7.5-7.5h401.97c4.15,0,7.5,3.36,7.5,7.5v65.5c0,4.14-3.35,7.5-7.5,7.5h-5c0.87,2.41,1.34,5,1.34,7.7
			c0,6.5-2.74,12.36-7.13,16.5v30.73h10.79C413.871,234.527,417.221,237.887,417.221,242.027z M402.221,303.377v-53.85h-101.54
			l-18.9,41.41c-1.26,2.76-3.98,4.39-6.82,4.39c-1.05,0-2.1-0.22-3.11-0.68l-98.85-45.12H15.251v53.85H402.221z M402.221,164.597
			v-50.5H15.251v50.5H402.221z M391.061,187.297c0-4.25-3.45-7.7-7.7-7.7H34.121c-4.24,0-7.7,3.45-7.7,7.7s3.46,7.7,7.7,7.7h349.24
			C387.611,194.997,391.061,191.547,391.061,187.297z M383.931,234.527v-24.53h-0.57h-64.63l-11.2,24.53H383.931z M271.251,277.887
			l30.99-67.89h-179.72L271.251,277.887z M33.551,234.527h106.59l-53.74-24.53h-52.28h-0.57V234.527z"/>
		<path style="fill:#E29E30;" d="M402.221,249.527v53.85H15.251v-53.85h157.75l98.85,45.12c1.01,0.46,2.06,0.68,3.11,0.68
			c2.84,0,5.56-1.63,6.82-4.39l18.9-41.41H402.221z"/>
		<rect x="15.251" y="114.097" style="fill:#E29E30;" width="386.97" height="50.5"/>
		<polygon style="fill:#E0C732;" points="302.241,209.997 271.251,277.887 122.521,209.997 		"/>
	</g>
	<g>
	</g>
</g>
<g>
</g>
<g>
</g>
<g>
</g>
<g>
</g>
<g>
</g>
<g>
</g>
<g>
</g>
<g>
</g>
<g>
</g>
<g>
</g>
<g>
</g>
<g>
</g>
<g>
</g>
<g>
</g>
<g>
</g>
</svg>
